<svg id="ins" xmlns="http://www.w3.org/2000/svg" width="30" height="30" viewBox="0 0 30 30">
  <defs>
    <style>
      .cls-1 {
        fill: #fff;
      }

      .cls-2, .cls-3 {
        fill: #333;
      }

      .cls-2 {
        fill-rule: evenodd;
      }
    </style>
  </defs>
  <circle id="楕円形_26" data-name="楕円形 26" class="cls-1" cx="15" cy="15" r="15"/>
  <g id="グループ_2816" data-name="グループ 2816">
    <path id="パス_232" data-name="パス 232" class="cls-2" d="M2710.25,3819c-1.83,0-2.06.01-2.78,0.04a5.078,5.078,0,0,0-1.64.31,3.449,3.449,0,0,0-1.98,1.98,5.078,5.078,0,0,0-.31,1.64c-0.03.72-.04,0.95-0.04,2.78s0.01,2.06.04,2.78a5.078,5.078,0,0,0,.31,1.64,3.449,3.449,0,0,0,1.98,1.98,5.078,5.078,0,0,0,1.64.31c0.72,0.03.95,0.04,2.78,0.04s2.06-.01,2.78-0.04a5.078,5.078,0,0,0,1.64-.31,3.449,3.449,0,0,0,1.98-1.98,5.078,5.078,0,0,0,.31-1.64c0.03-.72.04-0.95,0.04-2.78s-0.01-2.06-.04-2.78a5.078,5.078,0,0,0-.31-1.64,3.449,3.449,0,0,0-1.98-1.98,5.078,5.078,0,0,0-1.64-.31c-0.72-.03-0.95-0.04-2.78-0.04h0Zm0,1.22c1.8,0,2.02,0,2.73.04a3.792,3.792,0,0,1,1.25.23,2.168,2.168,0,0,1,1.28,1.28,3.792,3.792,0,0,1,.23,1.25c0.04,0.71.04,0.93,0.04,2.73s0,2.02-.04,2.73a3.792,3.792,0,0,1-.23,1.25,2.168,2.168,0,0,1-1.28,1.28,3.792,3.792,0,0,1-1.25.23c-0.71.04-.93,0.04-2.73,0.04s-2.02,0-2.73-.04a3.792,3.792,0,0,1-1.25-.23,2.168,2.168,0,0,1-1.28-1.28,3.792,3.792,0,0,1-.23-1.25c-0.04-.71-0.04-0.93-0.04-2.73s0-2.02.04-2.73a3.792,3.792,0,0,1,.23-1.25,2.168,2.168,0,0,1,1.28-1.28,3.792,3.792,0,0,1,1.25-.23C2708.23,3820.22,2708.45,3820.22,2710.25,3820.22Z" transform="translate(-2695 -3811)"/>
    <path id="パス_233" data-name="パス 233" class="cls-2" d="M2710.25,3822.28a3.47,3.47,0,1,0,3.47,3.47A3.478,3.478,0,0,0,2710.25,3822.28Zm0,5.72a2.25,2.25,0,1,1,2.25-2.25A2.253,2.253,0,0,1,2710.25,3828Z" transform="translate(-2695 -3811)"/>
    <circle id="楕円形_29" data-name="楕円形 29" class="cls-3" cx="18.845" cy="11.155" r="0.815"/>
  </g>
</svg>
