<svg xmlns="http://www.w3.org/2000/svg" width="182" height="182" viewBox="0 0 182 182">
  <defs>
    <style>
      .cls-1 {
        fill: #555;
        fill-rule: evenodd;
      }
    </style>
  </defs>
  <path id="パス_261_のコピー" data-name="パス 261 のコピー" class="cls-1" d="M3327,3102a91,91,0,1,1-91,91A91,91,0,0,1,3327,3102Zm-23.01,118h5.78v-6.21h4.8v-3.78h-4.8v-3.51h4.8v-3.73h-4.15l8.8-26.51h-5.78l-6.59,21.11-6.64-21.11h-5.67l8.86,26.51h-4.22v3.73h4.81v3.51h-4.81v3.78h4.81V3220Zm36.55,0.67c10.22,0,14.8-7.33,14.8-17.69v-25.83c0-10.5-4.51-17.61-14.8-17.61-10.43,0-14.87,7.11-14.87,17.61v25.83C3325.67,3213.27,3330.33,3220.67,3340.54,3220.67Zm0-6.52c-5.55,0-6.88-5.55-6.88-11.1v-25.97c0-5.77,1.11-11.1,6.88-11.1,5.7,0,6.81,5.33,6.81,11.1v25.97C3347.35,3208.6,3346.09,3214.15,3340.54,3214.15Z" transform="translate(-3236 -3102)"/>
</svg>
